<?xml version="1.0" encoding="utf-8"?>
<!-- Generator: Adobe Illustrator 24.1.0, SVG Export Plug-In . SVG Version: 6.00 Build 0)  -->
<svg version="1.1" id="Capa_1" xmlns="http://www.w3.org/2000/svg" xmlns:xlink="http://www.w3.org/1999/xlink" x="0px" y="0px"
	 viewBox="0 0 30 30" style="enable-background:new 0 0 30 30;" xml:space="preserve">
<style type="text/css">
	.st0{fill:#FFFFFF;}
</style>
<g>
	<path class="st0" d="M12.27,15.67c-0.25-0.11-0.6-0.17-1.05-0.18H8.64v2.8h2.55c0.45,0,0.81-0.06,1.06-0.18
		c0.46-0.23,0.69-0.67,0.69-1.31C12.94,16.25,12.72,15.88,12.27,15.67z"/>
	<path class="st0" d="M19.6,13.82c-0.52,0-0.92,0.15-1.21,0.44c-0.29,0.3-0.47,0.7-0.54,1.2h3.5c-0.04-0.54-0.22-0.95-0.54-1.23
		C20.48,13.96,20.08,13.82,19.6,13.82z"/>
	<path class="st0" d="M12.3,13.5c0.28-0.17,0.43-0.48,0.43-0.92c0-0.49-0.19-0.81-0.56-0.97c-0.32-0.11-0.74-0.16-1.24-0.16H8.64
		v2.32h2.55C11.65,13.76,12.02,13.67,12.3,13.5z"/>
	<path class="st0" d="M15,0L15,0C6.72,0,0,6.72,0,15v0c0,8.28,6.72,15,15,15h0c8.28,0,15-6.72,15-15v0C30,6.72,23.28,0,15,0z
		 M17.19,10.22h4.56v1.06h-4.56V10.22z M14.69,18.62c-0.2,0.33-0.45,0.6-0.74,0.83c-0.34,0.26-0.73,0.43-1.19,0.53
		c-0.46,0.1-0.95,0.14-1.48,0.14H6.54V9.62h5.08c1.28,0.02,2.19,0.39,2.72,1.12c0.32,0.45,0.48,0.98,0.48,1.6
		c0,0.64-0.16,1.16-0.49,1.55c-0.18,0.22-0.45,0.42-0.8,0.6c0.54,0.19,0.94,0.5,1.21,0.93c0.27,0.42,0.41,0.94,0.41,1.54
		C15.16,17.57,15,18.13,14.69,18.62z M18.61,18.45c0.31,0.19,0.68,0.29,1.12,0.29c0.46,0,0.84-0.12,1.13-0.36
		c0.16-0.13,0.3-0.31,0.42-0.53h2.07c-0.05,0.46-0.31,0.93-0.75,1.4c-0.69,0.76-1.67,1.13-2.92,1.13c-1.03,0-1.95-0.32-2.74-0.96
		c-0.79-0.64-1.19-1.67-1.19-3.11c0-1.35,0.36-2.38,1.07-3.09c0.71-0.72,1.64-1.08,2.78-1.08c0.68,0,1.29,0.12,1.83,0.36
		c0.54,0.24,0.99,0.63,1.34,1.15c0.32,0.46,0.52,1,0.62,1.61c0.05,0.36,0.08,0.87,0.07,1.54H17.8
		C17.83,17.59,18.1,18.13,18.61,18.45z"/>
</g>
</svg>
