<?xml version="1.0" encoding="utf-8"?>
<!-- Generator: Adobe Illustrator 24.1.0, SVG Export Plug-In . SVG Version: 6.00 Build 0)  -->
<svg version="1.1" id="Capa_1" xmlns="http://www.w3.org/2000/svg" xmlns:xlink="http://www.w3.org/1999/xlink" x="0px" y="0px"
	 viewBox="0 0 30 30" style="enable-background:new 0 0 30 30;" xml:space="preserve">
<style type="text/css">
	.st0{fill:#FFFFFF;}
</style>
<path class="st0" d="M15,0L15,0C6.72,0,0,6.72,0,15v0c0,8.28,6.72,15,15,15h0c8.28,0,15-6.72,15-15C30,6.72,23.28,0,15,0z
	 M19.18,9.11c0,0-1.41,0-1.98,0c-0.7,0-0.84,0.29-0.84,1.01c0,0.6,0,1.74,0,1.74h2.82l-0.27,3.06h-2.55v9.14h-3.65v-9.11h-1.9v-3.1
	h1.9c0,0,0-0.45,0-2.44c0-2.29,1.23-3.49,3.94-3.49c0.45,0,2.53,0,2.53,0V9.11z"/>
</svg>
