<?xml version="1.0" encoding="utf-8"?>
<!-- Generator: Adobe Illustrator 24.1.0, SVG Export Plug-In . SVG Version: 6.00 Build 0)  -->
<svg version="1.1" id="Capa_1" xmlns="http://www.w3.org/2000/svg" xmlns:xlink="http://www.w3.org/1999/xlink" x="0px" y="0px"
	 viewBox="0 0 30 30" style="enable-background:new 0 0 30 30;" xml:space="preserve">
<style type="text/css">
	.st0{fill:#FFFFFF;}
</style>
<path class="st0" d="M15.03,0.06c-8.27,0-14.97,6.7-14.97,14.97v0C0.06,23.3,6.77,30,15.03,30C23.3,30,30,23.3,30,15.03v0
	C30,6.77,23.3,0.06,15.03,0.06z M11.34,21.7h-3.1V11.7h3.1V21.7z M9.78,10.39c-1.01,0-1.83-0.83-1.83-1.85s0.82-1.85,1.83-1.85
	c1.01,0,1.83,0.83,1.83,1.85S10.79,10.39,9.78,10.39z M22.95,21.7h-3.08c0,0,0-3.81,0-5.25c0-1.44-0.55-2.25-1.69-2.25
	c-1.24,0-1.89,0.84-1.89,2.25c0,1.54,0,5.25,0,5.25h-2.97V11.7h2.97v1.35c0,0,0.89-1.65,3.02-1.65c2.12,0,3.64,1.3,3.64,3.98
	C22.95,18.05,22.95,21.7,22.95,21.7z"/>
</svg>
