<?xml version="1.0" encoding="utf-8"?>
<!-- Generator: Adobe Illustrator 24.1.0, SVG Export Plug-In . SVG Version: 6.00 Build 0)  -->
<svg version="1.1" id="Capa_1" xmlns="http://www.w3.org/2000/svg" xmlns:xlink="http://www.w3.org/1999/xlink" x="0px" y="0px"
	 viewBox="0 0 100 100" style="enable-background:new 0 0 100 100;" xml:space="preserve">
<style type="text/css">
	.st0{fill:#0A0626;}
	.st1{fill:#FFFFFF;}
</style>
<circle class="st0" cx="50" cy="50" r="50"/>
<g>
	<g>
		<path class="st1" d="M38.38,66.18L9.05,54.04v-8.76l29.33-12.14v11.28l-13.5,5.25l13.5,5.23V66.18z M12.02,52.06l23.39,9.68v-4.8
			l-18.74-7.26l18.74-7.29v-4.8l-23.39,9.68V52.06z"/>
	</g>
	<g>
		<path class="st1" d="M50.56,71.13H39.99l9.36-42.1h10.57L50.56,71.13z M43.69,68.16h4.49l8.04-36.16h-4.49L43.69,68.16z"/>
	</g>
	<g>
		<path class="st1" d="M61.51,66.18V54.9l13.5-5.23l-13.5-5.25V33.15l29.33,12.14v8.76L61.51,66.18z M64.48,56.94v4.8l23.39-9.68
			v-4.79l-23.39-9.68v4.8l18.74,7.29L64.48,56.94z"/>
	</g>
</g>
</svg>
